<svg xmlns="http://www.w3.org/2000/svg" id="Layer_1" data-name="Layer 1" viewBox="0 0 176 176">
    <defs>
        <style>.cls-1{fill:#ceeae2;}.cls-2{fill:#519e86;}.cls-3{font-size:24.01px;font-family:Serbie-Regular, Serbie;}.cls-3,.cls-5{fill:#fff;}.cls-4{fill:none;stroke:#519e86;stroke-miterlimit:10;stroke-width:5.08px;}</style>
    </defs>
    <rect class="cls-1" width="176" height="176"/>
    <path class="cls-2" d="M95.56,92.24v-8.8H92.07V80.33h11v3.11H99.57v8.8Z"/>
    <path class="cls-2" d="M108.11,92.24h-4V80.33h4Zm4-4.39h-4.25v-3.3h4.25Zm-.28-7.52h4V92.24h-4Z"/>
    <path class="cls-2" d="M121.71,89.21h6v3h-9.9V80.33h9.67v3h-5.73Zm-.27-4.46h5.31v2.89h-5.31Z"/>
    <text class="cls-3" transform="translate(129.57 90.2)">+</text>
    <path class="cls-2" d="M95.62,108.52V99.73H92.14V96.62h11v3.11H99.64v8.79Z"/>
    <path class="cls-2" d="M108.18,108.52h-4V96.62h4Zm4-4.39H107.9v-3.3h4.25Zm-.27-7.51h4v11.9h-4Z"/>
    <path class="cls-2" d="M116.54,108.52l5.21-11.9h3.94l5.21,11.9h-4.15l-3.85-10h1.57l-3.85,10Zm3.1-2.08,1-2.89h5.47l1,2.89Z"/>
    <path class="cls-2" d="M137.61,108.79a7.49,7.49,0,0,1-2.67-.46,6.18,6.18,0,0,1-2.14-1.3,5.9,5.9,0,0,1-1.4-2,6.43,6.43,0,0,1,0-5,5.9,5.9,0,0,1,1.4-2,6.33,6.33,0,0,1,2.14-1.3,8,8,0,0,1,5.36,0,6.39,6.39,0,0,1,2.13,1.3,6,6,0,0,1,1.4,2,6.43,6.43,0,0,1,0,5,6,6,0,0,1-1.4,2,6.23,6.23,0,0,1-2.13,1.3A7.52,7.52,0,0,1,137.61,108.79Zm0-3.25a2.59,2.59,0,0,0,1-.2,2.5,2.5,0,0,0,.85-.59,2.7,2.7,0,0,0,.57-.93,3.53,3.53,0,0,0,.2-1.25,3.49,3.49,0,0,0-.2-1.25,2.85,2.85,0,0,0-.57-.94,2.65,2.65,0,0,0-.85-.59,2.83,2.83,0,0,0-2.09,0,2.57,2.57,0,0,0-1.42,1.53,3.49,3.49,0,0,0-.21,1.25,3.52,3.52,0,0,0,.21,1.25,2.58,2.58,0,0,0,1.42,1.52A2.57,2.57,0,0,0,137.61,105.54Z"/>
    <ellipse class="cls-4" cx="88" cy="90.2" rx="70.12" ry="66.04"/>
    <path class="cls-2" d="M59.38,119.43,54,113.65c3.45-3.2,6.62-6.25,9.93-9.15,1.47-1.29,1.62-2.25.13-3.6s-2.81-2.9-4.45-4.62L47.87,107.09c-1.64-1.75-3.19-3.28-4.56-5a2,2,0,0,1,.16-2C48.84,95.06,54.29,90,59.62,85.08c2.32,2.16,4.57,4.1,6.63,6.22,3.26,3.35,6.37,6.86,9.61,10.24,1.06,1.11,1.25,1.91,0,3-5.16,4.7-10.26,9.47-15.39,14.2A6.53,6.53,0,0,1,59.38,119.43Z"/>
    <path class="cls-2" d="M43,83.77c1.78-1.68,3.37-3.19,5-4.68,3.64-3.37,7.34-6.67,10.89-10.13,1.45-1.43,2.33-1.29,3.61.19,2.36,2.74,5,5.29,7.38,8,1.07,1.2,1.87,1.25,3,.11,2.6-2.54,5.34-4.93,7.94-7.45,1.23-1.2,2.15-1.24,3.25.13s2.45,2.75,3.93,4.39L70.94,90.2c-2.58-2.74-5-5.33-7.5-8-3.2-3.43-3.18-3.43-6.56-.25-2.32,2.18-4.69,4.31-7,6.52-1,.94-1.72,1-2.63-.06C46,86.92,44.55,85.47,43,83.77Z"/>
    <path class="cls-5" d="M73.45,65.06a4.25,4.25,0,0,1-4.4,4.26,4.45,4.45,0,0,1-4.32-4.15,4.57,4.57,0,0,1,4.34-4.44A4.38,4.38,0,0,1,73.45,65.06Z"/>
    <path class="cls-5" d="M44.92,108.19a4.29,4.29,0,0,1-4.34,4.39,4.35,4.35,0,0,1-4.25-4.24,4.42,4.42,0,0,1,4.37-4.42A4.37,4.37,0,0,1,44.92,108.19Z"/>
</svg>